<?xml version="1.0" standalone="no"?>
<!DOCTYPE svg PUBLIC "-//W3C//DTD SVG 20010904//EN"
 "http://www.w3.org/TR/2001/REC-SVG-20010904/DTD/svg10.dtd">
<svg version="1.0" xmlns="http://www.w3.org/2000/svg"
 width="512.000000pt" height="512.000000pt" viewBox="0 0 512.000000 512.000000"
 preserveAspectRatio="xMidYMid meet">
<metadata>
Created by potrace 1.14, written by Peter Selinger 2001-2017
</metadata>
<g transform="translate(0.000000,512.000000) scale(0.100000,-0.100000)"
fill="#000000" stroke="none">
<path d="M1023 4944 c-93 -34 -163 -148 -203 -330 -14 -68 -18 -128 -18 -307
0 -203 5 -264 31 -352 10 -36 62 -135 92 -175 l35 -48 0 -841 c0 -922 -3 -882
60 -933 69 -57 166 -46 224 25 l31 39 3 568 2 568 50 -33 c62 -42 139 -71 210
-80 30 -4 56 -8 57 -9 1 -1 3 -184 3 -407 2 -427 6 -482 51 -619 99 -298 363
-541 673 -620 l71 -18 3 -141 c2 -115 0 -141 -11 -141 -8 0 -47 -16 -86 -36
-142 -71 -262 -231 -290 -388 -6 -33 -11 -160 -11 -283 l0 -223 560 0 561 0
-1 228 c-2 253 -9 307 -50 400 -57 124 -143 212 -268 273 l-83 41 3 136 3 135
85 23 c304 80 555 313 656 608 49 144 54 198 54 645 l0 416 65 34 c41 21 85
55 121 94 59 63 124 182 124 226 0 13 3 22 6 18 4 -3 6 -284 5 -624 l-1 -619
24 -35 c37 -54 72 -73 137 -74 46 0 62 5 93 29 69 52 66 19 66 810 l0 714 35
42 c44 52 90 148 111 231 12 47 15 96 12 198 -3 127 -6 140 -35 203 -36 77
-98 148 -160 185 l-43 25 -1 151 c-1 181 0 179 -35 224 -34 45 -84 66 -140 59
-56 -6 -77 -18 -111 -63 -27 -35 -28 -41 -33 -186 l-5 -150 -82 -56 c-228
-155 -477 -270 -723 -336 -96 -25 -273 -59 -365 -70 -109 -13 -332 -13 -412 0
-367 59 -683 311 -817 650 -44 109 -66 143 -118 176 -59 38 -148 48 -215 23z
m1693 -4018 c87 -36 156 -103 200 -191 32 -64 37 -86 42 -165 l5 -90 -403 0
-403 0 5 88 c11 197 130 338 323 386 47 12 175 -4 231 -28z"/>
</g>
</svg>
